<svg viewBox="-2.4 -2.4 28.80 28.80" fill="none" xmlns="http://www.w3.org/2000/svg"><g id="SVGRepo_bgCarrier" stroke-width="0" transform="translate(0,0), scale(1)"><rect x="-2.4" y="-2.4" width="28.80" height="28.80" rx="2.592" fill="#eff8fb" strokewidth="0"></rect></g><g id="SVGRepo_tracerCarrier" stroke-linecap="round" stroke-linejoin="round" stroke="#CCCCCC" stroke-width="0.048"></g><g id="SVGRepo_iconCarrier"> <path opacity="0.5" d="M12 22C17.5228 22 22 17.5228 22 12C22 6.47715 17.5228 2 12 2C6.47715 2 2 6.47715 2 12C2 17.5228 6.47715 22 12 22Z" fill="#1C274C"></path> <path fill-rule="evenodd" clip-rule="evenodd" d="M12.4697 11.5303C12.1768 11.2374 12.1768 10.7626 12.4697 10.4697L20.1893 2.75H16.6562C16.242 2.75 15.9062 2.41421 15.9062 2C15.9062 1.58579 16.242 1.25 16.6562 1.25H22C22.4142 1.25 22.75 1.58579 22.75 2V7.34375C22.75 7.75796 22.4142 8.09375 22 8.09375C21.5858 8.09375 21.25 7.75796 21.25 7.34375V3.81066L13.5303 11.5303C13.2374 11.8232 12.7626 11.8232 12.4697 11.5303Z" fill="#1C274C"></path> </g></svg>
